<svg xmlns="http://www.w3.org/2000/svg" viewBox="0 0 64 64" fill="none">
  <defs>
    <linearGradient id="umbrellaGrad" x1="0%" y1="0%" x2="100%" y2="100%">
      <stop offset="0%" style="stop-color:#d4af37;stop-opacity:1" />
      <stop offset="100%" style="stop-color:#b8860b;stop-opacity:1" />
    </linearGradient>
  </defs>
  <path d="M32 4C18.7 4 8 14.7 8 28c0 1.1.9 2 2 2h20v26c0 2.2 1.8 4 4 4s4-1.8 4-4V30h16c1.1 0 2-.9 2-2 0-13.3-10.7-24-24-24z" fill="url(#umbrellaGrad)"/>
  <path d="M32 4C18.7 4 8 14.7 8 28c0 1.1.9 2 2 2h20V4z" fill="#1a1a2e" opacity="0.2"/>
</svg>
